<svg xmlns="http://www.w3.org/2000/svg"
     viewBox="0 0 1000 1000">
<g>
    <g transform="translate(0.000000,512.000000) scale(0.100000,-0.100000)">
        <path fill="#33aaff" d="M3526.8,4989.4c-189.5-49.8-331.2-170.4-417.3-352.3c-46-91.9-51.7-134-57.4-346.5l-7.7-241.2l-143.6-13.4c-78.5-5.8-180-26.8-222.1-45.9c-103.4-45.9-233.6-189.5-260.4-283.3c-11.5-44-21.1-254.6-21.1-495.8c0-382.9,3.8-428.8,40.2-507.3c86.1-189.5,245-287.2,470.9-287.2h135.9l7.7-252.7c5.7-231.6,9.6-264.2,59.3-361.8c59.3-120.6,178-241.2,304.4-306.3c68.9-38.3,120.6-45.9,340.8-55.5l258.4-9.6l5.7-166.6l5.8-168.5h-534.1c-587.7,0-650.9-9.6-813.6-116.8c-49.8-32.5-113-91.9-143.6-134l-51.7-74.7h-507.3c-493.9,0-509.2,1.9-603,45.9c-114.9,55.5-204.8,145.5-256.5,260.4c-32.5,70.8-40.2,126.4-40.2,310.1v225.9l53.6,11.5c195.3,47.9,421.2,231.6,509.2,415.4c74.7,158.9,86.2,245.1,88.1,593.5c0,315.9,0,321.6-47.9,367.6c-38.3,40.2-65.1,47.9-162.7,47.9h-114.9v275.7c0,248.9-3.8,279.5-40.2,325.4c-28.7,36.4-57.4,49.8-105.3,49.8c-153.2,0-180-61.3-180-403.9v-247H913.6H750.9v275.7c0,248.9-3.8,279.5-40.2,325.4c-49.8,61.3-160.8,68.9-229.7,13.4c-44-34.5-45.9-47.9-51.7-325.4l-5.7-289.1H320.2c-202.9,0-220.2-32.5-220.2-407.8c0-151.2,9.6-321.6,19.1-377.1c55.5-291,262.3-528.4,543.7-624.1l88.1-30.6v-164.6c1.9-459.5,135.9-733.2,434.6-890.2c176.1-91.9,298.6-109.1,796.4-109.1h415.4V-436c0-840.4,1.9-884.5,40.2-984c51.7-139.7,183.8-283.3,319.7-350.3c107.2-53.6,114.9-53.6,526.5-59.3l415.4-5.8v-507.3c0-484.3-1.9-505.4-36.4-505.4c-80.4,0-325.5-99.6-448-183.8c-164.6-113-285.3-248.9-367.6-419.3c-111-225.9-124.4-310.1-124.4-798.3c0-409.7,1.9-438.4,38.3-474.8c21.1-21.1,57.4-42.1,80.4-47.9c24.9-5.7,497.7-7.7,1052.9-5.7l1008.9,5.7l44,44c44,42.1,44,49.8,44,497.8c0,415.4-3.8,465.2-42.1,587.7c-120.6,377.1-455.6,694.9-819.4,777.3l-105.3,23v505.4v503.5l1144.8-3.8l1142.9-5.7v-495.8v-493.9l-143.6-42.1c-208.7-61.2-335-135.9-499.6-298.6c-279.5-277.6-348.4-509.2-338.9-1139.1c5.7-358,7.7-373.3,49.8-415.4l44-44l1008.9-5.7c555.2-1.9,1028,0,1052.9,5.7c23,5.7,59.4,26.8,80.4,47.9c36.4,36.4,38.3,65.1,38.3,469c0,235.5-9.6,474.8-21.1,530.3c-30.6,145.5-153.1,392.5-254.6,505.4c-155.1,176.1-497.8,369.5-656.6,371.4h-44v505.4v507.3l417.3,5.8c409.7,5.7,417.3,5.7,524.6,59.3c135.9,67,268,210.6,319.7,350.3c38.3,99.6,40.2,143.6,40.2,984v880.6H8242c348.4,0,411.6-17.2,534.1-137.8c116.8-118.7,139.7-187.6,145.5-455.6l7.7-241.2l-103.4-32.5c-214.4-67-409.7-252.7-497.8-472.9c-38.3-93.8-44-147.4-49.8-472.9l-7.7-367.6l49.8-49.8c40.2-40.2,65.1-47.9,164.6-47.9H8600v-277.6c0-271.9,1.9-281.4,47.9-325.4c63.2-65.1,158.9-65.1,222.1,1.9c44.1,46,46,63.2,51.7,325.4l5.7,275.7h160.8H9249l5.7-289.1c5.7-277.6,7.6-291,51.7-325.4c24.9-19.1,68.9-36.4,97.6-36.4c147.4,0,172.3,57.4,172.3,392.5v258.4h111c122.5,0,183.8,38.3,206.8,126.3c5.8,24.9,7.7,191.4,3.8,367.6c-7.6,271.9-15.3,336.9-51.7,428.8c-86.2,224-287.2,423.1-492,486.3l-103.4,34.5v172.3c0,348.4-61.3,541.8-229.7,725.6c-189.5,208.7-361.8,262.3-842.3,262.3l-335,1.9l-53.6,76.6c-28.7,42.1-93.8,101.5-143.6,134c-164.6,103.4-225.9,112.9-811.7,112.9h-534.1l5.7,168.5l5.7,166.6l258.4,9.6c229.7,9.6,269.9,17.2,354.2,61.3c118.7,61.3,247,197.2,302.5,317.8c34.5,74.7,42.1,135.9,47.9,344.6l7.7,252.7h124.4c183.8,0,268,32.5,379.1,143.6c135.9,134,143.6,174.2,143.6,681.5c0,478.6-9.6,522.6-135.9,647.1c-90,90-199.1,134-369.5,149.3l-145.5,11.5v216.3c0,319.7-76.6,492-273.8,627.9c-189.5,128.3-158.9,126.4-1851.3,124.4C3877.1,5018.2,3614.9,5012.4,3526.8,4989.4z M6767.9,4667.8c82.3-32.5,160.8-128.3,185.7-222.1c13.4-49.8,19.1-474.8,15.3-1269.3l-5.7-1192.7l-53.6-82.3c-34.5-51.7-84.2-95.7-134-118.7c-76.6-34.5-147.4-36.4-1611.9-36.4s-1535.4,1.9-1611.9,36.4c-49.8,23-99.5,67-134,118.7l-53.6,82.3l-5.7,1192.7c-3.8,798.3,1.9,1217.6,15.3,1269.3c24.9,91.9,93.8,176.1,176.1,216.3c57.4,28.7,225.9,32.5,1610,32.5C6423.3,4694.6,6718.2,4690.8,6767.9,4667.8z M3048.2,3220.5v-497.7h-95.7c-53.6,0-122.5,13.4-151.2,28.7c-90,45.9-101.5,101.5-93.8,505.4l5.7,369.5l53.6,45.9c44,38.3,74.7,45.9,168.5,45.9h112.9V3220.5z M7560.5,3672.3l53.6-45.9l5.7-369.5c7.7-403.9-3.8-459.5-93.8-505.4c-28.7-15.3-97.6-28.7-151.2-28.7h-95.7v497.7v497.8H7392C7485.8,3718.3,7516.5,3710.6,7560.5,3672.3z M1407.5,2512.2c-1.9-153.2-11.5-241.2-32.5-291c-112.9-264.2-432.7-381-683.5-248.9c-114.9,59.3-216.3,178-247,287.2c-9.6,38.3-19.1,162.7-19.1,277.6v204.8l493.9-3.8l492-5.7L1407.5,2512.2z M5977.3,1267.8v-172.3h-813.6H4350v172.3v172.3h813.6h813.6V1267.8z M7430.3,743.3c90-47.9,170.4-155.1,183.8-245.1c5.7-45.9,9.6-467.1,5.7-936.1l-5.7-851.9l-51.7-78.5c-26.8-42.1-82.3-91.9-124.4-112.9c-70.8-34.5-153.1-36.4-2216.9-42.1c-1516.2-3.8-2172.9,0-2241.8,15.3c-120.6,24.9-225.9,118.7-254.6,225.9c-28.7,101.5-28.7,1738.3,0,1824.4c26.8,76.6,80.4,143.6,160.8,191.4c55.5,34.5,145.5,36.4,2274.3,36.4C7058.9,770.1,7384.4,766.2,7430.3,743.3z M9302.6-746.2c95.7-44,187.6-143.6,237.4-252.7c28.7-61.3,36.4-126.3,36.4-304.4v-224l-492,3.8l-493.9,5.7l1.9,210.6c0,250.8,24.9,331.2,128.3,444.2C8881.5-688.7,9090.1-646.6,9302.6-746.2z M4110.7-3187c214.4-68.9,388.6-225.9,495.8-446.1c59.4-122.5,59.4-128.3,65.1-472.9l7.7-350.3h-164.6H4350v160.8c0,250.8-38.3,317.8-180,317.8c-47.9,0-76.6-13.4-105.3-49.8c-34.5-44.1-40.2-78.5-40.2-239.3v-189.5h-172.3H3680v201c0,176.1-5.7,206.7-38.3,239.3c-59.4,59.3-178,51.7-227.8-11.5c-34.5-44.1-40.2-78.5-40.2-239.3v-189.5h-172.3h-172.3v254.6c0,314,21.1,449.9,95.7,599.2C3302.8-3238.7,3720.2-3064.5,4110.7-3187z M6714.3-3183.2c273.8-76.6,509.2-344.6,564.8-639.4c9.6-55.5,19.1-222.1,19.1-367.5v-266.1h-172.3h-172.3v189.5c0,160.8-5.7,195.3-40.2,239.3c-51.7,65.1-157,68.9-222.1,7.6c-40.2-38.3-44-57.4-44-239.3v-197.2H6475h-172.3v189.5c0,160.8-5.7,195.3-40.2,239.3c-28.7,36.4-57.4,49.8-105.3,49.8c-141.7,0-180-67-180-317.8v-160.8h-162.7h-162.7v304.4c0,248.9,7.7,327.4,38.3,426.9c70.8,227.8,216.3,396.3,432.6,497.8C6321.9-3133.4,6490.3-3121.9,6714.3-3183.2z"/>
        <path fill="#33aaff" d="M4233.2,4350c-195.3-32.5-396.3-191.4-482.4-379.1c-30.6-68.9-40.2-128.3-42.1-252.7c0-147.4,5.7-176.1,63.2-291c70.8-145.5,157-229.7,310.1-300.6c88.1-42.1,132.1-49.8,268-49.8c135.9,0,180,7.7,268,49.8c183.8,88.1,304.4,235.5,356.1,436.5c72.8,285.2-68.9,591.6-331.2,727.5c-63.2,30.6-275.7,84.2-310.1,76.6C4327,4365.3,4281.1,4357.7,4233.2,4350z M4531.9,3984.4c231.6-157,166.6-518.8-105.3-591.6c-143.6-38.3-325.5,53.6-382.9,191.4c-34.5,84.2-15.3,248.9,36.4,323.5C4179.6,4047.6,4386.4,4082,4531.9,3984.4z"/>
        <path fill="#33aaff" d="M5831.8,4342.4c-292.9-72.8-490.1-317.8-493.9-612.6c-1.9-191.4,44-312.1,172.3-449.9c143.6-157,252.7-202.9,476.7-202.9c160.8,0,180,3.8,292.9,65.1c141.7,76.6,220.2,160.8,289.1,308.2c67,141.7,70.8,384.8,7.6,520.7C6448.2,4250.5,6118.9,4415.1,5831.8,4342.4z M6130.4,4005.4c210.6-107.2,239.3-390.5,57.4-543.7c-312-262.3-723.6,176.1-444.1,474.8C5847.1,4045.6,5998.3,4072.4,6130.4,4005.4z"/>
        <path fill="#33aaff" d="M3747,2674.9c-45.9-44-47.9-57.4-47.9-268s1.9-224,47.9-268c57.4-59.4,157-63.2,216.3-9.6c53.6,49.8,67,137.8,57.4,336.9c-7.7,135.9-15.3,168.5-53.6,208.7C3905.9,2740,3810.1,2740,3747,2674.9z"/>
        <path fill="#33aaff" d="M4405.5,2686.4c-42.1-34.5-45.9-51.7-51.7-268c-7.7-224-5.8-231.6,42.1-279.5s124.4-61.3,193.4-36.4c61.3,24.9,86.1,112.9,86.1,304.4c0,191.4-24.9,279.5-86.1,304.4C4530,2734.3,4449.6,2722.8,4405.5,2686.4z"/>
        <path fill="#33aaff" d="M5081.3,2709.4c-55.5-21-80.4-118.7-80.4-302.5c0-191.4,24.9-279.5,86.2-304.4c59.3-23,139.7-11.5,183.8,24.9c42.1,32.5,46,53.6,51.7,231.6c7.7,220.2,0,271.9-53.6,325.5C5232.6,2720.9,5140.7,2734.3,5081.3,2709.4z"/>
        <path fill="#33aaff" d="M5722.7,2699.8c-49.8-40.2-70.8-122.5-70.8-291c0-176.1,24.9-269.9,76.6-298.7c63.2-34.5,151.3-21.1,201,28.7c46,44,47.9,57.4,47.9,268s-1.9,224-47.9,268C5877.7,2728.5,5776.3,2740,5722.7,2699.8z"/>
        <path fill="#33aaff" d="M6364,2678.7c-38.3-40.2-42.1-65.1-42.1-273.8c0-216.3,1.9-233.6,44-271.8c61.3-57.4,155.1-55.5,214.4,5.7c46,44,47.9,57.4,47.9,268s-1.9,224-47.9,268C6519,2738.1,6421.4,2740,6364,2678.7z"/>
        <path fill="#33aaff" d="M3459.8,96.2c-80.4-47.9-84.2-67-86.2-467.1c0-352.2,3.8-390.5,36.4-430.7l36.4-45.9l555.2-5.7l555.2-5.8l53.6,47.9l55.5,46v394.4c0,382.9-1.9,394.4-44,436.5c-42.1,44-49.8,44-583.9,47.9C3653.2,117.2,3486.6,113.4,3459.8,96.2z M4350-369v-162.7h-335h-335V-369v162.7h335h335V-369z"/>
        <path fill="#33aaff" d="M5406.8-66.5c-55.5-21-80.4-118.7-80.4-302.5c0-191.4,24.9-279.5,86.2-304.4c68.9-24.9,145.5-11.5,193.3,36.4s49.8,55.5,42.1,279.5c-5.7,216.3-9.6,233.6-51.7,268C5554.2-55,5462.3-43.6,5406.8-66.5z"/>
        <path fill="#33aaff" d="M6032.8-102.9c-40.2-42.1-45.9-70.8-53.6-210.6c-11.5-285.2,28.7-371.4,168.5-371.4c59.3,0,84.2,11.5,114.9,49.8c34.5,46,40.2,78.5,40.2,270c0,206.7-1.9,220.2-47.9,264.2C6191.7-35.9,6096-35.9,6032.8-102.9z"/>
        <path fill="#33aaff" d="M6689.4-97.1c-38.3-40.2-42.1-65.1-42.1-273.8c0-216.3,1.9-233.5,44-271.8c65.1-61.3,170.4-57.4,222.1,7.6c34.5,46,40.2,78.5,40.2,270c0,206.7-1.9,220.2-47.9,264.2C6844.5-37.8,6746.9-35.9,6689.4-97.1z"/>
    </g>
</g>
</svg>