<?xml version="1.0" standalone="no"?>
<!DOCTYPE svg PUBLIC "-//W3C//DTD SVG 20010904//EN"
 "http://www.w3.org/TR/2001/REC-SVG-20010904/DTD/svg10.dtd">
<svg version="1.0" xmlns="http://www.w3.org/2000/svg"
 width="1305.000000pt" height="1305.000000pt" viewBox="0 0 1305.000000 1305.000000"
 preserveAspectRatio="xMidYMid meet">
<metadata>
Created by potrace 1.11, written by Peter Selinger 2001-2013
</metadata>
<g transform="translate(0.000000,1305.000000) scale(0.100000,-0.100000)"
fill="#000000" stroke="none">
<path d="M2750 13042 c0 -5 -12 -9 -27 -9 -352 -6 -786 -108 -1096 -257 -53
-25 -101 -46 -107 -46 -5 0 -10 -4 -10 -10 0 -5 -5 -10 -11 -10 -25 0 -329
-191 -337 -211 -2 -5 -8 -9 -13 -9 -10 0 -10 0 -134 -103 -239 -198 -444 -438
-614 -719 -22 -38 -37 -68 -33 -68 4 0 2 -4 -4 -8 -39 -25 -222 -470 -248
-602 -2 -14 -11 -47 -19 -75 -14 -49 -43 -197 -51 -265 -13 -105 -16 -131 -22
-200 -7 -77 -13 -7779 -6 -7793 2 -5 5 -37 7 -72 2 -35 6 -81 9 -102 3 -21 8
-60 11 -88 3 -27 10 -72 15 -100 6 -27 12 -59 14 -70 56 -291 208 -672 357
-898 22 -32 39 -60 39 -63 0 -15 156 -218 245 -319 98 -112 146 -157 325 -315
19 -16 60 -47 90 -68 30 -20 57 -39 60 -42 15 -15 85 -63 155 -105 389 -235
801 -365 1270 -403 103 -9 7716 -8 7815 0 118 10 226 23 310 38 30 5 66 11 80
14 14 2 43 9 65 15 22 6 49 12 60 14 50 9 265 76 310 97 11 5 43 18 70 29 56
22 172 76 195 91 8 6 26 15 40 20 52 21 280 161 280 172 0 4 5 8 11 8 13 0
159 112 159 122 0 4 6 8 13 8 10 0 46 32 225 200 17 17 32 33 32 35 0 3 23 28
50 55 28 27 50 54 50 59 0 5 4 11 8 13 7 2 80 93 140 173 23 31 123 188 143
225 65 120 119 226 144 287 15 38 34 82 41 98 7 17 27 75 44 130 17 55 35 111
40 125 5 14 16 59 25 100 9 41 19 86 22 100 10 42 23 120 26 162 1 15 6 30 10
34 10 10 9 8172 -1 8178 -5 3 -10 18 -10 33 -2 28 -3 38 -17 118 -17 101 -95
389 -113 420 -4 6 -7 15 -8 20 -4 28 -74 188 -128 297 -60 120 -131 238 -231
384 -11 16 -23 31 -26 34 -4 3 -24 28 -45 56 -102 135 -315 349 -443 446 -31
23 -64 50 -74 60 -10 10 -21 18 -25 18 -4 0 -23 14 -42 30 -19 16 -39 30 -43
30 -5 0 -23 11 -40 24 -64 48 -395 226 -422 226 -3 0 -26 9 -49 20 -56 25
-276 100 -276 94 0 -3 -8 0 -18 5 -11 6 -30 12 -43 14 -13 3 -42 10 -64 15
-34 9 -91 20 -255 47 -14 3 -50 7 -80 10 -30 3 -77 8 -105 11 -27 4 -544 7
-1147 8 -604 0 -1098 4 -1098 9 0 4 -1231 7 -2735 7 -1504 0 -2735 -4 -2735
-8z"/>
</g>
</svg>
